<svg width="54" height="63" viewBox="0 0 54 63" fill="none" xmlns="http://www.w3.org/2000/svg">
<g filter="url(#filter0_f)">
<path d="M26.6876 13C23.3284 13 20.3197 15.6829 18.1096 18.9533C15.8318 22.3238 14.0792 26.7713 13.3587 31.2137C12.6423 35.6311 12.9139 40.2601 14.9523 43.8508C17.0579 47.56 20.9028 49.905 26.6925 49.905C32.4821 49.9048 36.3242 47.56 38.4282 43.854C40.4656 40.2648 40.7378 35.6365 40.0214 31.2184C39.3009 26.7757 37.5482 22.3275 35.2699 18.9561C33.0591 15.6847 30.0486 12.9999 26.6876 13Z" stroke="#6BDCFF" stroke-width="10"/>
</g>
<path d="M26.2275 47.9848C4.88938 47.9851 15.9016 14.0324 26.2279 14.0322C36.5543 14.0321 47.5657 47.9845 26.2275 47.9848Z" fill="black" stroke="black" stroke-width="2.95238"/>
<path d="M26.2275 47.9848C4.88938 47.9851 15.9016 14.0324 26.2279 14.0322C36.5543 14.0321 47.5657 47.9845 26.2275 47.9848Z" fill="white"/>
<path d="M27.9762 19.8572C29.1992 19.8572 30.1905 19.1963 30.1905 18.381C30.1905 17.5657 29.1992 16.9048 27.9762 16.9048C26.7533 16.9048 25.762 17.5657 25.762 18.381C25.762 19.1963 26.7533 19.8572 27.9762 19.8572Z" fill="black"/>
<path d="M26.4999 47.9049C34.245 47.9049 40.5237 41.9567 40.5237 34.6192C40.5237 27.2817 34.245 21.3335 26.4999 21.3335C18.7547 21.3335 12.4761 27.2817 12.4761 34.6192C12.4761 41.9567 18.7547 47.9049 26.4999 47.9049Z" fill="white"/>
<path d="M15.2358 34.6189L16.1666 44.9522M39.0477 38.3094C41.6887 25.7641 21.1757 20.3068 15.2358 34.6189L39.0477 38.3094ZM13.8047 40.5237C14.0381 38.267 14.5358 36.3057 15.2358 34.6189L13.8047 40.5237Z" stroke="black" stroke-width="2.95238"/>
<path d="M26.2261 13.0718C23.1391 13.0718 20.2649 15.5584 18.0754 18.7982C15.8419 22.1031 14.1155 26.4795 13.4063 30.8525C12.6998 35.2091 12.9817 39.7035 14.9391 43.1514C16.9402 46.6764 20.5988 48.9434 26.2292 48.9434C31.8595 48.9433 35.5163 46.6764 37.5163 43.1535C39.4731 39.7064 39.7555 35.2126 39.049 30.8555C38.3399 26.4821 36.6135 22.1054 34.3797 18.8C32.1898 15.5595 29.3143 13.0717 26.2261 13.0718Z" stroke="black" stroke-width="1.91905"/>
<path d="M25.0237 49.3815C30.323 49.3815 34.6189 44.7551 34.6189 39.0482C34.6189 33.3412 30.323 28.7148 25.0237 28.7148C19.7244 28.7148 15.4285 33.3412 15.4285 39.0482C15.4285 44.7551 19.7244 49.3815 25.0237 49.3815Z" fill="white"/>
<path d="M38.3095 39.0474C38.3095 40.983 36.4376 42.7379 33.881 42.7379C31.3243 42.7379 29.4524 40.983 29.4524 39.0474C29.4524 37.1118 31.3243 35.3569 33.881 35.3569C36.4376 35.3569 38.3095 37.1118 38.3095 39.0474Z" fill="black" stroke="black" stroke-width="1.47619"/>
<path d="M31.0466 42C34.7806 42 37.8075 39.3563 37.8075 36.0952C37.8075 32.8341 34.7806 30.1904 31.0466 30.1904C27.3126 30.1904 24.2856 32.8341 24.2856 36.0952C24.2856 39.3563 27.3126 42 31.0466 42Z" fill="white"/>
<path d="M26.2252 12.5557C22.866 12.5557 19.8573 15.2386 17.6472 18.509C15.3694 21.8794 13.6168 26.3269 12.8963 30.7694C12.1799 35.1867 12.4515 39.8158 14.4899 43.4065C16.5955 47.1157 20.4404 49.4606 26.2301 49.4606C32.0197 49.4605 35.8618 47.1157 37.9658 43.4097C40.0032 39.8205 40.2754 35.1922 39.559 30.7741C38.8385 26.3314 37.0858 21.8831 34.8075 18.5118C32.5967 15.2404 29.5862 12.5556 26.2252 12.5557Z" stroke="black" stroke-width="2.95238"/>
<path d="M30.1904 40.5234C31.821 40.5234 33.1428 39.2016 33.1428 37.571C33.1428 35.9405 31.821 34.6187 30.1904 34.6187C28.5599 34.6187 27.238 35.9405 27.238 37.571C27.238 39.2016 28.5599 40.5234 30.1904 40.5234Z" fill="black"/>
<defs>
<filter id="filter0_f" x="0.000488281" y="0" width="53.3788" height="62.905" filterUnits="userSpaceOnUse" color-interpolation-filters="sRGB">
<feFlood flood-opacity="0" result="BackgroundImageFix"/>
<feBlend mode="normal" in="SourceGraphic" in2="BackgroundImageFix" result="shape"/>
<feGaussianBlur stdDeviation="4" result="effect1_foregroundBlur"/>
</filter>
</defs>
</svg>
