<?xml version="1.0" encoding="utf-8"?>
<!-- Generator: Adobe Illustrator 22.0.1, SVG Export Plug-In . SVG Version: 6.00 Build 0)  -->
<svg version="1.1" id="Слой_1" xmlns="http://www.w3.org/2000/svg" xmlns:xlink="http://www.w3.org/1999/xlink" x="0px" y="0px"
	 width="18.5px" height="19px" viewBox="0 0 18.5 19" style="enable-background:new 0 0 18.5 19;" xml:space="preserve">
<style type="text/css">
	.st0{fill:#FFFFFF;}
</style>
<g>
	<rect x="2" y="2" class="st0" width="3.5" height="15"/>
	<path d="M6.5,0H1C0.4,0,0,0.4,0,1v17c0,0.6,0.4,1,1,1h5.5c0.6,0,1-0.4,1-1V1C7.5,0.4,7.1,0,6.5,0z M5.5,17H2V2h3.5V17z"/>
	<rect x="13" y="2" class="st0" width="3.5" height="15"/>
	<path d="M17.5,0H12c-0.6,0-1,0.4-1,1v17c0,0.6,0.4,1,1,1h5.5c0.6,0,1-0.4,1-1V1C18.5,0.4,18.1,0,17.5,0z M16.5,17H13V2h3.5V17z"/>
</g>
</svg>
