<?xml version="1.0" encoding="utf-8"?>
<!-- Generator: Adobe Illustrator 22.0.1, SVG Export Plug-In . SVG Version: 6.00 Build 0)  -->
<svg version="1.1" id="Слой_1" xmlns="http://www.w3.org/2000/svg" xmlns:xlink="http://www.w3.org/1999/xlink" x="0px" y="0px"
	 width="19.3px" height="20.9px" viewBox="0 0 19.3 20.9" style="enable-background:new 0 0 19.3 20.9;" xml:space="preserve">
<style type="text/css">
	.st0{fill:#FFFFFF;}
</style>
<g>
	<polygon class="st0" points="2,2 2,18.8 17.3,10.4 	"/>
	<path d="M18.3,8.7L3,0.3c-0.6-0.3-1.4-0.3-2,0C0.4,0.6,0,1.3,0,2v16.8c0,0.7,0.4,1.4,1,1.7c0.3,0.2,0.7,0.3,1,0.3
		c0.3,0,0.7-0.1,1-0.3l15.3-8.4c0.6-0.4,1-1,1-1.8C19.3,9.7,18.9,9,18.3,8.7z M2,2l15.3,8.4L2,18.8V2z"/>
</g>
</svg>
