<?xml version="1.0" encoding="utf-8"?>
<!-- Generator: Adobe Illustrator 22.0.1, SVG Export Plug-In . SVG Version: 6.00 Build 0)  -->
<svg version="1.1" id="Слой_1" xmlns="http://www.w3.org/2000/svg" xmlns:xlink="http://www.w3.org/1999/xlink" x="0px" y="0px"
	 width="51.4px" height="67.5px" viewBox="0 0 51.4 67.5" style="enable-background:new 0 0 51.4 67.5;" xml:space="preserve">
<style type="text/css">
	.st0{fill:#FFFFFF;}
</style>
<g>
	<path class="st0" d="M34.1,28.9c-5.6-1.7-12.6-1.1-18,3c-5.2,2.9-8.7,8.8-8.7,15.5c0,2.9,0.7,5.6,1.8,8c3.5,4.7,9,7.1,16.5,7.1
		c8.3,0,14.2-3,17.6-8.8c-1.3,0.7-2.9,1.1-4.6,1.1c-2.7,0-5-1-6.7-2.6c0.6,0.1,1.2,0.1,1.9,0.1c6.3,0,11.4-4.4,11.4-9.9l0,0
		C45.4,35.1,39.6,30.6,34.1,28.9z M32.4,49.9c-2.8,0-5-2.2-5-5s2.2-5,5-5s5,2.2,5,5S35.2,49.9,32.4,49.9z"/>
	<path class="st0" d="M35.6,24.1c3.5,1.1,6.8,2.9,9.3,5.5c-1.4-5.7-3.8-11.2-6.8-15.6c-2.3-3.4-6.9-9-12.5-9s-10.2,5.6-12.5,9
		c-3.7,5.5-6.5,12.7-7.6,19.8c-0.2,1.5-0.4,3-0.5,4.4C11.4,24,25.2,20.9,35.6,24.1z M28.7,9.9c2.1,0,3.8,1.1,3.8,2.5
		s-1.7,2.5-3.8,2.5s-3.8-1.1-3.8-2.5S26.6,9.9,28.7,9.9z"/>
	<ellipse cx="28.7" cy="12.4" rx="3.8" ry="2.5"/>
	<path d="M50.7,33c-1.3-7.8-4.3-15.7-8.4-21.8C37.4,4,31.5,0,25.7,0S14,4,9.1,11.2C5,17.3,1.9,25.2,0.7,33c-1,6.3-1.3,15.4,3,23
		c3,5.3,9.2,11.5,22.1,11.5c12.8,0,19.1-6.3,22-11.5C52.1,48.4,51.8,39.3,50.7,33z M45.3,42.5c-0.1,5.5-5.2,9.9-11.4,9.9
		c-0.6,0-1.2-0.1-1.9-0.1c1.6,1.6,4,2.6,6.7,2.6c1.7,0,3.3-0.4,4.6-1.1c-3.4,5.8-9.3,8.8-17.6,8.8c-7.4,0-12.9-2.4-16.5-7.1
		c-1.2-2.4-1.8-5.1-1.8-8c0-6.7,3.5-12.5,8.7-15.5c5.5-4.2,12.4-4.8,18-3C39.6,30.6,45.4,35.1,45.3,42.5L45.3,42.5z M5.6,33.7
		c1.1-7.1,3.9-14.3,7.6-19.8c2.3-3.4,6.9-9,12.5-9s10.2,5.6,12.5,9c3,4.4,5.4,10,6.8,15.6c-2.6-2.6-5.9-4.5-9.3-5.5
		c-10.3-3.2-24.2-0.1-30.5,14C5.2,36.7,5.3,35.2,5.6,33.7z"/>
	<circle cx="32.4" cy="44.9" r="5"/>
</g>
</svg>
